# xmcd
#
# Track frame offsets:
#	182
#	12457
#	23285
#	32690
#	46895
#	57620
#	77482
#	89832
#	99472
#	113977
#	126752
#	138447
#	151822
#	164355
#	176135
#	195842
#	208515
#	217505
#
# Disc length: 3606 seconds
# Revision: 4
# Processed by: cddbd v1.5.2PL0 Copyright (c) Steve Scherf et al.
# Submitted via: dBpowerAMP V12.0
#
DISCID=e40e1412
DTITLE=Various Artist - Blues Masters, Volume 4: Harmonica Classics [Rhino R2 71124]
DYEAR=1992
DGENRE=Blues
TTITLE0=Little Walter and His Night Cats - Juke
TTITLE1=Jimmy Reed - Ends and Odds
TTITLE2=Jimmy Cotton Blues Quartet - Rocket 88
TTITLE3=Sonny Boy Williamson - Help Me
TTITLE4=Junior Wells Chicago Blues Band - Messin' With The Kid
TTITLE5=The Paul Butterfield Blues Band - Blues With A Feeling
TTITLE6=Lazy Lester - Sugar Coated Love
TTITLE7=Jerry McCain - Steady
TTITLE8=Howlin' Wolf - I'll Be Around
TTITLE9=Billy Boy Arnold - I Was Fooled
TTITLE10=Big John Wrencher With Joe Carter - Take A Little Walk With Me
TTITLE11=Jimmy and Walter - Easy
TTITLE12=Snooky Pryor - Boogie Twist
TTITLE13=Hot Shot Love - Wolf Call Boogie
TTITLE14=George "Harmonica" Smith and the Chicago Blues Band - Last Night
TTITLE15=Slim Harpo - I Got Love If You Want It
TTITLE16=The Fabulous Thunderbirds - Cherry Pink and Apple Blossom White
TTITLE17=Charlie Musselwhite - Christo Redemptor
EXTD=
EXTT0=
EXTT1=
EXTT2=
EXTT3=
EXTT4=
EXTT5=
EXTT6=
EXTT7=
EXTT8=
EXTT9=
EXTT10=
EXTT11=
EXTT12=
EXTT13=
EXTT14=
EXTT15=
EXTT16=
EXTT17=
PLAYORDER=
